<svg xmlns="http://www.w3.org/2000/svg" xmlns:xlink="http://www.w3.org/1999/xlink" width="500" zoomAndPan="magnify" viewBox="0 0 375 149.999998" height="200" preserveAspectRatio="xMidYMid meet" version="1.2"><defs><clipPath id="be67e54ff9"><path d="M 7.382812 12.351562 L 136.015625 12.351562 L 136.015625 140.980469 L 7.382812 140.980469 Z M 7.382812 12.351562 "/></clipPath><clipPath id="afc7ce7395"><path d="M 71.699219 12.351562 C 36.179688 12.351562 7.382812 41.144531 7.382812 76.664062 C 7.382812 112.183594 36.179688 140.980469 71.699219 140.980469 C 107.21875 140.980469 136.015625 112.183594 136.015625 76.664062 C 136.015625 41.144531 107.21875 12.351562 71.699219 12.351562 Z M 71.699219 12.351562 "/></clipPath><clipPath id="7f72f2cbbf"><path d="M 6.304688 10.1875 L 137.488281 10.1875 L 137.488281 141 L 6.304688 141 Z M 6.304688 10.1875 "/></clipPath></defs><g id="26e2d214a4"><g clip-rule="nonzero" clip-path="url(#be67e54ff9)"><g clip-rule="nonzero" clip-path="url(#afc7ce7395)"><path style=" stroke:none;fill-rule:nonzero;fill:#2b1511;fill-opacity:1;" d="M 7.382812 12.351562 L 136.015625 12.351562 L 136.015625 140.980469 L 7.382812 140.980469 Z M 7.382812 12.351562 "/></g></g><g clip-rule="nonzero" clip-path="url(#7f72f2cbbf)"><path style=" stroke:none;fill-rule:nonzero;fill:#0cc0df;fill-opacity:1;" d="M 117.925781 29.339844 C 105.574219 16.992188 89.15625 10.1875 71.691406 10.1875 C 54.222656 10.1875 37.804688 16.992188 25.453125 29.339844 C 13.105469 41.6875 6.304688 58.109375 6.304688 75.574219 C 6.304688 93.039062 13.105469 109.460938 25.453125 121.808594 C 37.804688 134.160156 54.222656 140.960938 71.691406 140.960938 C 89.15625 140.960938 105.574219 134.160156 117.925781 121.808594 C 130.273438 109.460938 137.074219 93.039062 137.074219 75.574219 C 137.074219 58.109375 130.273438 41.6875 117.925781 29.339844 Z M 71.691406 138.761719 C 36.851562 138.761719 8.503906 110.414062 8.503906 75.574219 C 8.503906 40.734375 36.851562 12.386719 71.691406 12.386719 C 106.53125 12.386719 134.875 40.734375 134.875 75.574219 C 134.875 110.414062 106.53125 138.761719 71.691406 138.761719 Z M 71.691406 138.761719 "/></g><path style=" stroke:none;fill-rule:nonzero;fill:#0cc0df;fill-opacity:1;" d="M 107.988281 55.199219 C 107.808594 55.304688 107.617188 55.359375 107.421875 55.359375 C 107.050781 55.359375 106.683594 55.164062 106.476562 54.820312 C 99.195312 42.640625 85.863281 35.074219 71.691406 35.074219 C 57.515625 35.074219 44.183594 42.640625 36.902344 54.820312 C 36.589844 55.339844 35.914062 55.511719 35.394531 55.199219 C 34.871094 54.886719 34.703125 54.214844 35.011719 53.691406 C 38.738281 47.460938 44.023438 42.246094 50.300781 38.605469 C 56.773438 34.855469 64.167969 32.875 71.691406 32.875 C 79.210938 32.875 86.605469 34.855469 93.078125 38.605469 C 99.355469 42.246094 104.640625 47.464844 108.367188 53.691406 C 108.675781 54.214844 108.507812 54.890625 107.988281 55.199219 Z M 107.988281 55.199219 "/><path style=" stroke:none;fill-rule:nonzero;fill:#0cc0df;fill-opacity:1;" d="M 108.367188 100.707031 C 104.640625 106.9375 99.355469 112.152344 93.078125 115.792969 C 86.605469 119.542969 79.210938 121.527344 71.691406 121.527344 C 64.167969 121.527344 56.773438 119.542969 50.300781 115.792969 C 44.023438 112.152344 38.738281 106.9375 35.011719 100.707031 C 34.703125 100.183594 34.871094 99.511719 35.394531 99.199219 C 35.914062 98.886719 36.589844 99.058594 36.902344 99.578125 C 44.183594 111.757812 57.515625 119.328125 71.691406 119.328125 C 85.863281 119.328125 99.195312 111.757812 106.476562 99.578125 C 106.789062 99.058594 107.464844 98.886719 107.988281 99.199219 C 108.507812 99.511719 108.675781 100.183594 108.367188 100.707031 Z M 108.367188 100.707031 "/><path style=" stroke:none;fill-rule:nonzero;fill:#0cc0df;fill-opacity:1;" d="M 89.933594 72.949219 L 89.933594 89.085938 C 89.933594 90.878906 89.683594 92.613281 89.214844 94.261719 C 89.003906 95.015625 88.746094 95.746094 88.441406 96.460938 C 85.554688 103.285156 78.792969 108.085938 70.929688 108.085938 C 60.453125 108.085938 51.929688 99.5625 51.929688 89.085938 L 51.929688 72.949219 C 51.929688 72.910156 51.929688 72.871094 51.933594 72.832031 C 51.949219 72.714844 51.980469 72.59375 52.035156 72.480469 C 52.035156 72.480469 52.035156 72.472656 52.039062 72.472656 C 52.0625 72.425781 52.085938 72.378906 52.113281 72.339844 C 52.113281 72.339844 52.117188 72.335938 52.117188 72.332031 C 52.144531 72.292969 52.171875 72.253906 52.207031 72.21875 C 52.210938 72.214844 52.210938 72.210938 52.210938 72.210938 C 52.246094 72.175781 52.285156 72.136719 52.320312 72.109375 L 52.332031 72.101562 C 52.363281 72.074219 52.398438 72.042969 52.4375 72.023438 C 52.445312 72.015625 52.449219 72.015625 52.457031 72.011719 C 52.496094 71.984375 52.539062 71.960938 52.582031 71.945312 C 52.628906 71.925781 52.675781 71.90625 52.726562 71.894531 C 52.769531 71.878906 52.816406 71.867188 52.863281 71.863281 C 52.871094 71.859375 52.878906 71.859375 52.886719 71.859375 C 52.933594 71.851562 52.980469 71.851562 53.027344 71.851562 C 53.152344 71.851562 53.277344 71.867188 53.398438 71.914062 C 53.425781 71.925781 53.457031 71.933594 53.484375 71.953125 C 53.488281 71.953125 53.492188 71.953125 53.496094 71.953125 C 53.503906 71.957031 53.507812 71.960938 53.519531 71.964844 C 53.878906 72.144531 54.128906 72.519531 54.128906 72.949219 L 54.128906 89.085938 C 54.128906 98.347656 61.667969 105.886719 70.929688 105.886719 C 80.195312 105.886719 87.734375 98.347656 87.734375 89.085938 L 87.734375 72.949219 C 87.734375 72.339844 88.226562 71.851562 88.832031 71.851562 C 89.136719 71.851562 89.410156 71.972656 89.613281 72.171875 C 89.640625 72.199219 89.664062 72.226562 89.6875 72.253906 C 89.710938 72.285156 89.730469 72.3125 89.75 72.34375 C 89.773438 72.375 89.789062 72.40625 89.804688 72.4375 C 89.824219 72.464844 89.835938 72.492188 89.84375 72.519531 C 89.863281 72.554688 89.871094 72.585938 89.882812 72.621094 C 89.894531 72.65625 89.902344 72.691406 89.910156 72.726562 C 89.917969 72.765625 89.925781 72.800781 89.925781 72.835938 C 89.929688 72.875 89.933594 72.914062 89.933594 72.949219 Z M 89.933594 72.949219 "/><path style=" stroke:none;fill-rule:nonzero;fill:#0cc0df;fill-opacity:1;" d="M 89.925781 72.835938 C 89.78125 68.03125 80.070312 65.441406 70.929688 65.441406 C 61.792969 65.441406 52.089844 68.03125 51.933594 72.832031 C 51.929688 72.871094 51.929688 72.910156 51.929688 72.949219 C 51.929688 74.355469 52.746094 75.582031 54.128906 76.601562 C 57.535156 79.125 64.378906 80.457031 70.929688 80.457031 C 77.480469 80.457031 84.328125 79.125 87.734375 76.601562 C 89.117188 75.582031 89.933594 74.355469 89.933594 72.949219 C 89.933594 72.914062 89.929688 72.875 89.925781 72.835938 Z M 70.929688 78.257812 C 63.980469 78.257812 58.820312 76.878906 56.160156 75.304688 C 54.835938 74.519531 54.128906 73.6875 54.128906 72.949219 C 54.128906 72.738281 54.1875 72.519531 54.300781 72.296875 C 55.378906 70.175781 61.507812 67.640625 70.929688 67.640625 C 74.417969 67.640625 77.453125 67.988281 79.949219 68.53125 C 84.90625 69.613281 87.734375 71.476562 87.734375 72.949219 C 87.734375 73.085938 87.707031 73.230469 87.660156 73.375 C 86.921875 75.542969 80.691406 78.257812 70.929688 78.257812 Z M 70.929688 78.257812 "/><path style=" stroke:none;fill-rule:nonzero;fill:#0cc0df;fill-opacity:1;" d="M 104.34375 87.359375 C 104.34375 92.378906 100.261719 96.460938 95.242188 96.460938 L 87.699219 96.460938 C 87.09375 96.460938 86.601562 95.96875 86.601562 95.359375 C 86.601562 94.753906 87.09375 94.261719 87.699219 94.261719 L 95.242188 94.261719 C 99.050781 94.261719 102.144531 91.164062 102.144531 87.359375 C 102.144531 83.554688 99.050781 80.457031 95.242188 80.457031 L 88.832031 80.457031 C 88.535156 80.457031 88.265625 80.339844 88.070312 80.148438 C 87.863281 79.949219 87.734375 79.667969 87.734375 79.359375 C 87.734375 78.753906 88.226562 78.257812 88.832031 78.257812 L 95.242188 78.257812 C 100.261719 78.257812 104.34375 82.339844 104.34375 87.359375 Z M 104.34375 87.359375 "/><path style=" stroke:none;fill-rule:nonzero;fill:#0cc0df;fill-opacity:1;" d="M 89.933594 72.949219 C 89.933594 73.234375 89.824219 73.511719 89.613281 73.726562 C 89.183594 74.15625 88.484375 74.15625 88.054688 73.726562 C 87.960938 73.632812 87.851562 73.535156 87.734375 73.4375 C 87.710938 73.414062 87.683594 73.394531 87.660156 73.375 C 86.324219 72.277344 83.78125 71.09375 80.804688 70.792969 C 78.253906 70.53125 74.605469 70.828125 71.707031 73.726562 C 69.550781 75.882812 66.640625 76.59375 63.738281 76.59375 C 60.984375 76.59375 58.242188 75.957031 56.160156 75.304688 C 55.375 75.0625 54.6875 74.816406 54.128906 74.597656 C 53.230469 74.257812 52.664062 73.992188 52.5625 73.945312 C 52.164062 73.757812 51.929688 73.363281 51.929688 72.949219 C 51.929688 72.910156 51.929688 72.871094 51.933594 72.832031 C 51.949219 72.714844 51.980469 72.59375 52.035156 72.480469 C 52.035156 72.480469 52.035156 72.472656 52.039062 72.472656 C 52.0625 72.425781 52.085938 72.378906 52.113281 72.339844 C 52.113281 72.339844 52.117188 72.335938 52.117188 72.332031 C 52.144531 72.292969 52.171875 72.253906 52.207031 72.21875 C 52.210938 72.214844 52.210938 72.210938 52.210938 72.210938 C 52.246094 72.175781 52.285156 72.136719 52.320312 72.109375 L 52.332031 72.101562 C 52.363281 72.074219 52.398438 72.042969 52.4375 72.023438 C 52.445312 72.015625 52.449219 72.015625 52.457031 72.011719 C 52.496094 71.984375 52.539062 71.960938 52.582031 71.945312 C 52.628906 71.925781 52.675781 71.90625 52.726562 71.894531 C 52.769531 71.878906 52.816406 71.867188 52.863281 71.863281 C 52.871094 71.859375 52.878906 71.859375 52.886719 71.859375 C 52.933594 71.851562 52.980469 71.851562 53.027344 71.851562 C 53.152344 71.851562 53.277344 71.867188 53.398438 71.914062 C 53.425781 71.925781 53.457031 71.933594 53.484375 71.953125 C 53.488281 71.953125 53.492188 71.953125 53.496094 71.953125 C 53.503906 71.957031 53.507812 71.960938 53.519531 71.964844 C 53.597656 72 53.871094 72.125 54.300781 72.296875 C 55.960938 72.96875 59.941406 74.394531 63.757812 74.394531 C 66.15625 74.394531 68.488281 73.835938 70.152344 72.171875 C 72.65625 69.667969 76.105469 68.394531 79.949219 68.53125 C 80.304688 68.542969 80.664062 68.566406 81.027344 68.601562 C 84.417969 68.945312 87.789062 70.347656 89.613281 72.171875 C 89.640625 72.199219 89.664062 72.226562 89.6875 72.253906 C 89.710938 72.285156 89.730469 72.3125 89.75 72.34375 C 89.773438 72.375 89.789062 72.40625 89.804688 72.4375 C 89.824219 72.464844 89.835938 72.492188 89.84375 72.519531 C 89.863281 72.554688 89.871094 72.585938 89.882812 72.621094 C 89.894531 72.65625 89.902344 72.691406 89.910156 72.726562 C 89.917969 72.765625 89.925781 72.800781 89.925781 72.835938 C 89.929688 72.875 89.933594 72.914062 89.933594 72.949219 Z M 89.933594 72.949219 "/><path style=" stroke:none;fill-rule:nonzero;fill:#0cc0df;fill-opacity:1;" d="M 71.832031 85.570312 C 69.046875 85.570312 66.492188 85.339844 64.3125 85.027344 C 57.457031 84.042969 52.800781 82.105469 52.605469 82.023438 C 52.042969 81.789062 51.78125 81.144531 52.015625 80.582031 C 52.25 80.023438 52.894531 79.761719 53.453125 79.996094 C 53.636719 80.074219 71.800781 87.515625 88.378906 80.007812 C 88.933594 79.757812 89.582031 80 89.835938 80.554688 C 90.085938 81.105469 89.839844 81.757812 89.285156 82.007812 C 83.289062 84.730469 77.140625 85.570312 71.832031 85.570312 Z M 71.832031 85.570312 "/><path style=" stroke:none;fill-rule:nonzero;fill:#0cc0df;fill-opacity:1;" d="M 74.128906 61.019531 C 73.953125 61.125 73.757812 61.175781 73.566406 61.175781 C 73.191406 61.175781 72.828125 60.984375 72.621094 60.644531 C 72.308594 60.125 72.476562 59.449219 72.996094 59.136719 C 75.382812 57.695312 78.691406 54.921875 78.582031 53.246094 C 78.511719 52.136719 77.519531 51.382812 76.574219 51.210938 C 76.03125 51.109375 74.683594 51.0625 73.90625 52.777344 C 73.65625 53.328125 73.003906 53.574219 72.453125 53.320312 C 71.894531 53.070312 71.652344 52.417969 71.902344 51.867188 C 73.0625 49.316406 75.28125 48.738281 76.972656 49.046875 C 79.082031 49.429688 80.644531 51.097656 80.777344 53.101562 C 81.007812 56.691406 75.28125 60.324219 74.128906 61.019531 Z M 74.128906 61.019531 "/><path style=" stroke:none;fill-rule:nonzero;fill:#0cc0df;fill-opacity:1;" d="M 71.417969 48.964844 C 70.828125 49.109375 70.234375 48.75 70.085938 48.160156 C 69.378906 45.328125 67.671875 44.375 66.308594 44.429688 C 65.050781 44.476562 63.640625 45.371094 63.320312 47.261719 C 62.746094 50.644531 67.773438 56.730469 69.757812 58.789062 C 70.183594 59.226562 70.167969 59.921875 69.730469 60.34375 C 69.519531 60.550781 69.242188 60.652344 68.972656 60.652344 C 68.683594 60.652344 68.394531 60.539062 68.179688 60.316406 C 67.367188 59.476562 60.292969 51.972656 61.152344 46.894531 C 61.601562 44.246094 63.6875 42.328125 66.222656 42.230469 C 68.347656 42.148438 71.195312 43.515625 72.21875 47.628906 C 72.367188 48.222656 72.003906 48.816406 71.417969 48.964844 Z M 71.417969 48.964844 "/><path style=" stroke:none;fill-rule:nonzero;fill:#0cc0df;fill-opacity:1;" d="M 118.242188 71.925781 C 117.566406 71.359375 116.796875 70.988281 115.996094 70.820312 C 115.378906 70.6875 114.738281 70.675781 114.101562 70.792969 C 113.492188 70.902344 112.914062 71.097656 112.371094 71.359375 C 110.140625 72.441406 108.589844 74.695312 108.558594 77.160156 L 108.558594 77.167969 C 108.542969 79.636719 110.085938 81.917969 112.347656 83.027344 C 112.886719 83.296875 113.472656 83.496094 114.085938 83.613281 C 114.410156 83.675781 114.734375 83.707031 115.054688 83.707031 C 115.382812 83.707031 115.710938 83.671875 116.027344 83.609375 C 116.328125 83.550781 116.625 83.460938 116.910156 83.34375 C 117.144531 83.246094 117.375 83.136719 117.597656 83.003906 C 117.84375 82.855469 118.085938 82.6875 118.316406 82.496094 C 119.773438 81.28125 120.605469 79.359375 120.589844 77.222656 C 120.574219 75.074219 119.71875 73.140625 118.242188 71.925781 Z M 117.667969 79.945312 C 117.453125 80.277344 117.203125 80.566406 116.910156 80.804688 C 116.542969 81.113281 116.128906 81.320312 115.699219 81.425781 C 115.308594 81.519531 114.90625 81.53125 114.503906 81.453125 C 112.390625 81.046875 110.746094 79.171875 110.757812 77.1875 C 110.765625 76.519531 110.957031 75.867188 111.285156 75.277344 C 111.65625 74.609375 112.203125 74.027344 112.863281 73.605469 C 113.355469 73.289062 113.90625 73.066406 114.492188 72.957031 C 115.3125 72.804688 116.144531 73.042969 116.839844 73.617188 C 117.816406 74.421875 118.378906 75.742188 118.390625 77.242188 C 118.398438 78.261719 118.140625 79.203125 117.667969 79.945312 Z M 117.667969 79.945312 "/><path style=" stroke:none;fill-rule:nonzero;fill:#0cc0df;fill-opacity:1;" d="M 117.667969 79.945312 C 117.34375 78.808594 116.648438 77.5 115.265625 76.351562 C 113.816406 75.179688 113.15625 74.1875 112.863281 73.605469 C 112.722656 73.328125 112.664062 73.140625 112.648438 73.074219 C 112.648438 73.085938 112.648438 73.09375 112.652344 73.101562 C 112.648438 73.09375 112.648438 73.085938 112.648438 73.074219 L 112.648438 73.066406 C 112.644531 73.0625 112.644531 73.058594 112.644531 73.054688 C 112.5625 72.503906 112.0625 72.09375 111.5 72.125 C 110.890625 72.15625 110.429688 72.671875 110.457031 73.277344 C 110.460938 73.292969 110.511719 74.078125 111.285156 75.277344 C 111.785156 76.058594 112.585938 77.011719 113.871094 78.050781 C 115.378906 79.308594 115.664062 80.695312 115.699219 81.425781 C 115.710938 81.6875 115.691406 81.867188 115.679688 81.929688 C 115.644531 82.066406 115.636719 82.207031 115.652344 82.355469 L 115.765625 83.179688 L 116.910156 83.34375 C 117.144531 83.246094 117.375 83.136719 117.597656 83.003906 L 117.75 82.652344 C 117.910156 82.292969 118.03125 81.230469 117.667969 79.945312 Z M 115.691406 81.890625 C 115.746094 81.695312 115.867188 81.507812 116.039062 81.363281 C 115.875 81.5 115.753906 81.6875 115.691406 81.890625 Z M 115.691406 81.890625 "/><path style=" stroke:none;fill-rule:nonzero;fill:#0cc0df;fill-opacity:1;" d="M 117.152344 64.292969 L 117.148438 64.289062 C 116.242188 60.5 112.703125 58.929688 111.839844 58.703125 C 111.835938 58.703125 111.835938 58.703125 111.832031 58.699219 C 111.804688 58.695312 111.78125 58.691406 111.757812 58.683594 L 111.75 58.683594 C 111.71875 58.675781 111.695312 58.671875 111.667969 58.667969 C 111.40625 58.617188 111.273438 58.632812 111.242188 58.636719 C 111.234375 58.636719 111.234375 58.636719 111.234375 58.636719 C 111 58.71875 110.828125 58.964844 110.742188 59.101562 C 110.710938 59.15625 110.695312 59.195312 110.695312 59.195312 C 110.46875 59.625 110.191406 60.191406 110.027344 60.664062 C 110.003906 60.722656 109.984375 60.777344 109.96875 60.832031 C 109.183594 63.214844 108.964844 65.214844 109.316406 66.800781 C 109.683594 68.386719 110.707031 69.917969 112.371094 71.359375 C 112.625 71.585938 112.894531 71.804688 113.175781 72.023438 L 113.183594 72.191406 L 114.4375 72.738281 L 114.964844 72.300781 C 115.085938 72.195312 115.527344 71.65625 115.996094 70.820312 C 116.835938 69.324219 117.769531 66.882812 117.152344 64.292969 Z M 111.460938 66.316406 C 111.265625 65.4375 111.25 63.863281 112.152344 61.238281 C 112.628906 61.507812 113.226562 61.917969 113.765625 62.503906 C 114.304688 63.089844 114.78125 63.84375 115.011719 64.804688 C 115.496094 66.835938 114.625 68.804688 114.007812 69.871094 C 112.257812 68.40625 111.652344 67.144531 111.460938 66.316406 Z M 111.460938 66.316406 "/><path style=" stroke:none;fill-rule:nonzero;fill:#0cc0df;fill-opacity:1;" d="M 116.027344 83.609375 C 115.941406 83.453125 115.851562 83.3125 115.765625 83.179688 C 115.371094 82.554688 115.03125 82.160156 114.929688 82.078125 L 114.367188 81.648438 L 113.121094 82.300781 L 113.125 82.414062 C 112.851562 82.617188 112.59375 82.820312 112.347656 83.027344 C 110.652344 84.457031 109.601562 85.972656 109.214844 87.546875 C 108.8125 89.25 109.125 91.460938 110.136719 94.128906 C 110.136719 94.132812 110.140625 94.140625 110.140625 94.144531 C 110.148438 94.160156 110.152344 94.171875 110.160156 94.1875 C 110.269531 94.449219 110.742188 95.511719 111.460938 95.746094 L 111.464844 95.746094 C 111.484375 95.746094 111.503906 95.746094 111.523438 95.746094 C 111.625 95.746094 111.734375 95.738281 111.847656 95.707031 C 112.421875 95.566406 113.566406 95.089844 114.667969 94.195312 C 115.773438 93.300781 116.839844 91.984375 117.253906 90.164062 C 117.84375 87.554688 116.890625 85.113281 116.027344 83.609375 Z M 115.109375 89.679688 C 114.660156 91.65625 113.117188 92.730469 112.144531 93.222656 C 111.136719 90.523438 111.148438 88.929688 111.355469 88.0625 C 111.558594 87.226562 112.191406 85.972656 114.015625 84.507812 C 114.683594 85.636719 115.5625 87.675781 115.109375 89.679688 Z M 115.109375 89.679688 "/><path style=" stroke:none;fill-rule:nonzero;fill:#0cc0df;fill-opacity:1;" d="M 26.011719 71.925781 C 26.691406 71.359375 27.457031 70.988281 28.257812 70.820312 C 28.878906 70.6875 29.519531 70.675781 30.15625 70.792969 C 30.761719 70.902344 31.34375 71.097656 31.882812 71.359375 C 34.113281 72.441406 35.664062 74.695312 35.699219 77.160156 L 35.699219 77.167969 C 35.714844 79.636719 34.171875 81.917969 31.910156 83.027344 C 31.367188 83.296875 30.78125 83.496094 30.167969 83.613281 C 29.84375 83.675781 29.519531 83.707031 29.203125 83.707031 C 28.871094 83.707031 28.546875 83.671875 28.226562 83.609375 C 27.929688 83.550781 27.632812 83.460938 27.347656 83.34375 C 27.113281 83.246094 26.882812 83.136719 26.660156 83.003906 C 26.410156 82.855469 26.171875 82.6875 25.941406 82.496094 C 24.480469 81.28125 23.652344 79.359375 23.667969 77.222656 C 23.679688 75.074219 24.535156 73.140625 26.011719 71.925781 Z M 26.589844 79.945312 C 26.800781 80.277344 27.054688 80.566406 27.347656 80.804688 C 27.714844 81.113281 28.125 81.320312 28.558594 81.425781 C 28.945312 81.519531 29.351562 81.53125 29.75 81.453125 C 31.867188 81.046875 33.507812 79.171875 33.5 77.1875 C 33.488281 76.519531 33.296875 75.867188 32.96875 75.277344 C 32.597656 74.609375 32.050781 74.027344 31.394531 73.605469 C 30.902344 73.289062 30.351562 73.066406 29.761719 72.957031 C 28.941406 72.804688 28.109375 73.042969 27.414062 73.617188 C 26.441406 74.421875 25.878906 75.742188 25.867188 77.242188 C 25.859375 78.261719 26.117188 79.203125 26.589844 79.945312 Z M 26.589844 79.945312 "/><path style=" stroke:none;fill-rule:nonzero;fill:#0cc0df;fill-opacity:1;" d="M 26.589844 79.945312 C 26.910156 78.808594 27.609375 77.5 28.992188 76.351562 C 30.4375 75.179688 31.101562 74.1875 31.394531 73.605469 C 31.53125 73.328125 31.589844 73.140625 31.605469 73.074219 C 31.605469 73.085938 31.605469 73.09375 31.605469 73.101562 C 31.605469 73.09375 31.605469 73.085938 31.609375 73.074219 L 31.609375 73.066406 C 31.613281 73.0625 31.613281 73.058594 31.613281 73.054688 C 31.695312 72.503906 32.191406 72.09375 32.757812 72.125 C 33.363281 72.15625 33.828125 72.671875 33.796875 73.277344 C 33.796875 73.292969 33.742188 74.078125 32.96875 75.277344 C 32.472656 76.058594 31.671875 77.011719 30.386719 78.050781 C 28.878906 79.308594 28.589844 80.695312 28.558594 81.425781 C 28.546875 81.6875 28.566406 81.867188 28.574219 81.929688 C 28.609375 82.066406 28.621094 82.207031 28.601562 82.355469 L 28.488281 83.179688 L 27.347656 83.34375 C 27.113281 83.246094 26.882812 83.136719 26.660156 83.003906 L 26.503906 82.652344 C 26.34375 82.292969 26.226562 81.230469 26.589844 79.945312 Z M 28.5625 81.890625 C 28.511719 81.695312 28.390625 81.507812 28.21875 81.363281 C 28.378906 81.5 28.5 81.6875 28.5625 81.890625 Z M 28.5625 81.890625 "/><path style=" stroke:none;fill-rule:nonzero;fill:#0cc0df;fill-opacity:1;" d="M 27.105469 64.292969 L 27.105469 64.289062 C 28.015625 60.5 31.550781 58.929688 32.417969 58.703125 C 32.421875 58.703125 32.421875 58.703125 32.421875 58.699219 C 32.449219 58.695312 32.476562 58.691406 32.496094 58.683594 L 32.507812 58.683594 C 32.535156 58.675781 32.5625 58.671875 32.589844 58.667969 C 32.851562 58.617188 32.980469 58.632812 33.015625 58.636719 C 33.019531 58.636719 33.023438 58.636719 33.023438 58.636719 C 33.257812 58.71875 33.429688 58.964844 33.511719 59.101562 C 33.546875 59.15625 33.5625 59.195312 33.5625 59.195312 C 33.789062 59.625 34.066406 60.191406 34.230469 60.664062 C 34.25 60.722656 34.269531 60.777344 34.289062 60.832031 C 35.070312 63.214844 35.289062 65.214844 34.941406 66.800781 C 34.574219 68.386719 33.546875 69.917969 31.882812 71.359375 C 31.632812 71.585938 31.363281 71.804688 31.078125 72.023438 L 31.070312 72.191406 L 29.816406 72.738281 L 29.292969 72.300781 C 29.167969 72.195312 28.730469 71.65625 28.257812 70.820312 C 27.421875 69.324219 26.488281 66.882812 27.105469 64.292969 Z M 32.792969 66.316406 C 32.988281 65.4375 33.007812 63.863281 32.105469 61.238281 C 31.628906 61.507812 31.03125 61.917969 30.492188 62.503906 C 29.953125 63.089844 29.476562 63.84375 29.246094 64.804688 C 28.761719 66.835938 29.628906 68.804688 30.25 69.871094 C 31.996094 68.40625 32.605469 67.144531 32.792969 66.316406 Z M 32.792969 66.316406 "/><path style=" stroke:none;fill-rule:nonzero;fill:#0cc0df;fill-opacity:1;" d="M 28.226562 83.609375 C 28.316406 83.453125 28.402344 83.3125 28.488281 83.179688 C 28.886719 82.554688 29.222656 82.160156 29.328125 82.078125 L 29.890625 81.648438 L 31.136719 82.300781 L 31.132812 82.414062 C 31.402344 82.617188 31.660156 82.820312 31.910156 83.027344 C 33.601562 84.457031 34.652344 85.972656 35.039062 87.546875 C 35.441406 89.25 35.132812 91.460938 34.121094 94.128906 C 34.121094 94.132812 34.117188 94.140625 34.113281 94.144531 C 34.109375 94.160156 34.101562 94.171875 34.097656 94.1875 C 33.988281 94.449219 33.515625 95.511719 32.792969 95.746094 C 32.773438 95.746094 32.753906 95.746094 32.730469 95.746094 C 32.632812 95.746094 32.523438 95.738281 32.40625 95.707031 C 31.835938 95.566406 30.691406 95.089844 29.585938 94.195312 C 28.480469 93.300781 27.414062 91.984375 27.003906 90.164062 C 26.410156 87.554688 27.363281 85.113281 28.226562 83.609375 Z M 29.148438 89.679688 C 29.59375 91.65625 31.140625 92.730469 32.113281 93.222656 C 33.117188 90.523438 33.109375 88.929688 32.902344 88.0625 C 32.699219 87.226562 32.0625 85.972656 30.242188 84.507812 C 29.574219 85.636719 28.691406 87.675781 29.148438 89.679688 Z M 29.148438 89.679688 "/><path style=" stroke:none;fill-rule:nonzero;fill:#0cc0df;fill-opacity:1;" d="M 111.832031 58.699219 C 111.800781 58.695312 111.773438 58.691406 111.75 58.683594 L 111.757812 58.683594 C 111.78125 58.691406 111.804688 58.695312 111.832031 58.699219 Z M 111.832031 58.699219 "/><g style="fill:#0cc0df;fill-opacity:1;"><g transform="translate(52.443787, 30.788263)"><path style="stroke:none" d="M 5.734375 -1.84375 L 4.46875 -1.4375 C 4.332031 -1.394531 4.21875 -1.421875 4.125 -1.515625 L 1.46875 -4.609375 L 1.296875 -3.625 L 2.15625 -0.953125 C 2.207031 -0.796875 2.15625 -0.691406 2 -0.640625 L 0.84375 -0.265625 C 0.675781 -0.210938 0.566406 -0.265625 0.515625 -0.421875 L -2.421875 -9.5625 C -2.472656 -9.71875 -2.414062 -9.820312 -2.25 -9.875 L -1.09375 -10.25 C -0.9375 -10.300781 -0.832031 -10.25 -0.78125 -10.09375 L 0.40625 -6.375 L 1.0625 -10.734375 C 1.070312 -10.878906 1.140625 -10.972656 1.265625 -11.015625 L 2.53125 -11.421875 C 2.613281 -11.453125 2.675781 -11.445312 2.71875 -11.40625 C 2.769531 -11.363281 2.789062 -11.289062 2.78125 -11.1875 L 2.09375 -6.328125 L 5.828125 -2.1875 C 5.898438 -2.113281 5.925781 -2.046875 5.90625 -1.984375 C 5.894531 -1.921875 5.835938 -1.875 5.734375 -1.84375 Z M 5.734375 -1.84375 "/></g></g><g style="fill:#0cc0df;fill-opacity:1;"><g transform="translate(58.353752, 28.863863)"><path style="stroke:none" d="M 0.421875 -10.375 L 1.796875 -10.65625 C 2.390625 -10.769531 2.867188 -10.707031 3.234375 -10.46875 C 3.597656 -10.238281 3.835938 -9.832031 3.953125 -9.25 L 4.21875 -7.921875 C 4.238281 -7.796875 4.179688 -7.71875 4.046875 -7.6875 L 2.765625 -7.421875 C 2.628906 -7.398438 2.550781 -7.453125 2.53125 -7.578125 L 2.328125 -8.546875 C 2.265625 -8.878906 2.066406 -9.007812 1.734375 -8.9375 L 1.140625 -8.828125 C 0.804688 -8.753906 0.671875 -8.550781 0.734375 -8.21875 L 1.078125 -6.515625 L 4.234375 -6.15625 C 4.460938 -6.113281 4.597656 -5.984375 4.640625 -5.765625 L 5.21875 -2.90625 C 5.332031 -2.332031 5.269531 -1.859375 5.03125 -1.484375 C 4.789062 -1.117188 4.375 -0.878906 3.78125 -0.765625 L 2.40625 -0.484375 C 1.820312 -0.367188 1.34375 -0.429688 0.96875 -0.671875 C 0.601562 -0.921875 0.363281 -1.332031 0.25 -1.90625 L -0.015625 -3.203125 C -0.0351562 -3.335938 0.0195312 -3.414062 0.15625 -3.4375 L 1.4375 -3.703125 C 1.570312 -3.722656 1.648438 -3.664062 1.671875 -3.53125 L 1.875 -2.578125 C 1.9375 -2.253906 2.132812 -2.128906 2.46875 -2.203125 L 3.0625 -2.3125 C 3.394531 -2.382812 3.53125 -2.582031 3.46875 -2.90625 L 3.140625 -4.546875 L 0 -4.921875 C -0.238281 -4.960938 -0.382812 -5.09375 -0.4375 -5.3125 L -1.015625 -8.25 C -1.128906 -8.832031 -1.0625 -9.300781 -0.8125 -9.65625 C -0.570312 -10.019531 -0.160156 -10.257812 0.421875 -10.375 Z M 0.421875 -10.375 "/></g></g><g style="fill:#0cc0df;fill-opacity:1;"><g transform="translate(64.156056, 27.750015)"><path style="stroke:none" d=""/></g></g><g style="fill:#0cc0df;fill-opacity:1;"><g transform="translate(66.884999, 27.350966)"><path style="stroke:none" d="M 5.421875 -8.46875 L 5.453125 -7.109375 C 5.460938 -6.972656 5.398438 -6.90625 5.265625 -6.90625 L 4.015625 -6.859375 C 3.878906 -6.847656 3.804688 -6.910156 3.796875 -7.046875 L 3.765625 -8.046875 C 3.753906 -8.390625 3.578125 -8.554688 3.234375 -8.546875 L 2.578125 -8.53125 C 2.242188 -8.519531 2.082031 -8.34375 2.09375 -8 L 2.28125 -2.25 C 2.289062 -1.914062 2.460938 -1.753906 2.796875 -1.765625 L 3.453125 -1.78125 C 3.796875 -1.789062 3.960938 -1.960938 3.953125 -2.296875 L 3.921875 -3.3125 C 3.921875 -3.445312 3.988281 -3.519531 4.125 -3.53125 L 5.375 -3.578125 C 5.507812 -3.578125 5.578125 -3.507812 5.578125 -3.375 L 5.625 -2 C 5.644531 -1.414062 5.503906 -0.960938 5.203125 -0.640625 C 4.910156 -0.316406 4.46875 -0.144531 3.875 -0.125 L 2.46875 -0.078125 C 1.875 -0.0546875 1.410156 -0.195312 1.078125 -0.5 C 0.753906 -0.800781 0.582031 -1.242188 0.5625 -1.828125 L 0.359375 -8.296875 C 0.335938 -8.890625 0.476562 -9.34375 0.78125 -9.65625 C 1.09375 -9.976562 1.546875 -10.148438 2.140625 -10.171875 L 3.546875 -10.21875 C 4.140625 -10.238281 4.59375 -10.097656 4.90625 -9.796875 C 5.226562 -9.503906 5.398438 -9.0625 5.421875 -8.46875 Z M 5.421875 -8.46875 "/></g></g><g style="fill:#0cc0df;fill-opacity:1;"><g transform="translate(72.62952, 27.095488)"><path style="stroke:none" d="M 6.6875 0.578125 L 5.359375 0.46875 C 5.253906 0.457031 5.191406 0.394531 5.171875 0.28125 L 4.984375 -1.59375 L 2.734375 -1.796875 L 2.234375 0.015625 C 2.203125 0.128906 2.132812 0.179688 2.03125 0.171875 L 0.6875 0.0625 C 0.53125 0.0507812 0.476562 -0.0234375 0.53125 -0.171875 L 3.453125 -9.671875 C 3.492188 -9.773438 3.570312 -9.820312 3.6875 -9.8125 L 5.4375 -9.671875 C 5.5625 -9.660156 5.628906 -9.59375 5.640625 -9.46875 L 6.875 0.375 C 6.894531 0.519531 6.832031 0.585938 6.6875 0.578125 Z M 4.78125 -3.078125 L 4.375 -7.53125 L 3.171875 -3.21875 Z M 4.78125 -3.078125 "/></g></g><g style="fill:#0cc0df;fill-opacity:1;"><g transform="translate(79.423756, 27.682966)"><path style="stroke:none" d="M 7.578125 -8.53125 L 7.328125 -7.296875 C 7.296875 -7.171875 7.21875 -7.117188 7.09375 -7.140625 L 4.015625 -7.78125 L 3.5 -5.28125 L 5.828125 -4.796875 C 5.953125 -4.773438 6 -4.695312 5.96875 -4.5625 L 5.71875 -3.34375 C 5.6875 -3.207031 5.609375 -3.148438 5.484375 -3.171875 L 3.15625 -3.65625 L 2.34375 0.28125 C 2.3125 0.414062 2.226562 0.46875 2.09375 0.4375 L 0.8125 0.171875 C 0.675781 0.140625 0.625 0.0546875 0.65625 -0.078125 L 2.625 -9.5625 C 2.65625 -9.6875 2.738281 -9.734375 2.875 -9.703125 L 7.4375 -8.75 C 7.5625 -8.726562 7.609375 -8.65625 7.578125 -8.53125 Z M 7.578125 -8.53125 "/></g></g><g style="fill:#0cc0df;fill-opacity:1;"><g transform="translate(85.088108, 28.836933)"><path style="stroke:none" d="M 8.46875 -7.640625 L 8.078125 -6.453125 C 8.023438 -6.304688 7.9375 -6.253906 7.8125 -6.296875 L 4.8125 -7.28125 L 4.03125 -4.875 L 6.3125 -4.125 C 6.4375 -4.082031 6.476562 -4 6.4375 -3.875 L 6.046875 -2.6875 C 6.003906 -2.550781 5.921875 -2.503906 5.796875 -2.546875 L 3.515625 -3.296875 L 2.71875 -0.875 L 5.71875 0.109375 C 5.84375 0.148438 5.882812 0.238281 5.84375 0.375 L 5.453125 1.578125 C 5.410156 1.703125 5.328125 1.742188 5.203125 1.703125 L 0.78125 0.25 C 0.65625 0.207031 0.613281 0.125 0.65625 0 L 3.671875 -9.21875 C 3.710938 -9.34375 3.796875 -9.382812 3.921875 -9.34375 L 8.34375 -7.890625 C 8.46875 -7.847656 8.507812 -7.765625 8.46875 -7.640625 Z M 8.46875 -7.640625 "/></g></g><g style="fill:#0cc0df;fill-opacity:1;"><g transform="translate(35.614153, 124.919149)"><path style="stroke:none" d="M 8.953125 -4.5625 L 8.3125 -3.359375 C 8.238281 -3.242188 8.140625 -3.21875 8.015625 -3.28125 L 6.921875 -3.890625 C 6.804688 -3.953125 6.785156 -4.039062 6.859375 -4.15625 L 7.328125 -5.03125 C 7.492188 -5.332031 7.425781 -5.5625 7.125 -5.71875 L 6.546875 -6.046875 C 6.253906 -6.203125 6.023438 -6.128906 5.859375 -5.828125 L 3.109375 -0.78125 C 2.953125 -0.488281 3.019531 -0.265625 3.3125 -0.109375 L 3.890625 0.21875 C 4.191406 0.375 4.421875 0.304688 4.578125 0.015625 L 5.0625 -0.875 C 5.132812 -1 5.226562 -1.03125 5.34375 -0.96875 L 6.4375 -0.359375 C 6.5625 -0.296875 6.585938 -0.203125 6.515625 -0.078125 L 5.859375 1.125 C 5.585938 1.632812 5.238281 1.953125 4.8125 2.078125 C 4.394531 2.210938 3.925781 2.140625 3.40625 1.859375 L 2.171875 1.171875 C 1.648438 0.890625 1.320312 0.535156 1.1875 0.109375 C 1.0625 -0.316406 1.132812 -0.785156 1.40625 -1.296875 L 4.5 -6.984375 C 4.78125 -7.503906 5.132812 -7.820312 5.5625 -7.9375 C 6 -8.050781 6.476562 -7.96875 7 -7.6875 L 8.234375 -7 C 8.753906 -6.71875 9.070312 -6.367188 9.1875 -5.953125 C 9.3125 -5.546875 9.234375 -5.082031 8.953125 -4.5625 Z M 8.953125 -4.5625 "/></g></g><g style="fill:#0cc0df;fill-opacity:1;"><g transform="translate(41.608266, 128.152779)"><path style="stroke:none" d="M 1.28125 -1.421875 L 3.3125 -6.21875 C 3.550781 -6.769531 3.867188 -7.125 4.265625 -7.28125 C 4.671875 -7.445312 5.148438 -7.414062 5.703125 -7.1875 L 6.984375 -6.640625 C 7.546875 -6.398438 7.910156 -6.078125 8.078125 -5.671875 C 8.242188 -5.273438 8.207031 -4.800781 7.96875 -4.25 L 5.9375 0.546875 C 5.707031 1.085938 5.390625 1.441406 4.984375 1.609375 C 4.585938 1.773438 4.109375 1.738281 3.546875 1.5 L 2.265625 0.953125 C 1.710938 0.722656 1.351562 0.40625 1.1875 0 C 1.019531 -0.40625 1.050781 -0.878906 1.28125 -1.421875 Z M 3.203125 -0.421875 L 3.9375 -0.109375 C 4.25 0.0234375 4.46875 -0.0625 4.59375 -0.375 L 6.375 -4.578125 C 6.507812 -4.890625 6.421875 -5.113281 6.109375 -5.25 L 5.375 -5.5625 C 5.0625 -5.695312 4.835938 -5.609375 4.703125 -5.296875 L 2.921875 -1.09375 C 2.796875 -0.78125 2.890625 -0.554688 3.203125 -0.421875 Z M 3.203125 -0.421875 "/></g></g><g style="fill:#0cc0df;fill-opacity:1;"><g transform="translate(47.87793, 130.7792)"><path style="stroke:none" d="M 8 -6.5625 L 7.609375 -5.359375 C 7.578125 -5.222656 7.5 -5.175781 7.375 -5.21875 L 4.375 -6.140625 L 3.734375 -4.078125 L 6 -3.375 C 6.132812 -3.332031 6.179688 -3.25 6.140625 -3.125 L 5.765625 -1.921875 C 5.722656 -1.785156 5.632812 -1.738281 5.5 -1.78125 L 3.234375 -2.484375 L 2.296875 0.515625 C 2.253906 0.640625 2.171875 0.679688 2.046875 0.640625 L 0.796875 0.25 C 0.660156 0.207031 0.613281 0.125 0.65625 0 L 3.171875 -8.0625 C 3.203125 -8.1875 3.285156 -8.226562 3.421875 -8.1875 L 7.859375 -6.8125 C 7.984375 -6.769531 8.03125 -6.6875 8 -6.5625 Z M 8 -6.5625 "/></g></g><g style="fill:#0cc0df;fill-opacity:1;"><g transform="translate(54.374357, 132.779984)"><path style="stroke:none" d="M 7.3125 -7.296875 L 7.0625 -6.0625 C 7.03125 -5.925781 6.953125 -5.875 6.828125 -5.90625 L 3.75 -6.546875 L 3.3125 -4.4375 L 5.640625 -3.953125 C 5.765625 -3.921875 5.8125 -3.84375 5.78125 -3.71875 L 5.53125 -2.46875 C 5.5 -2.34375 5.421875 -2.296875 5.296875 -2.328125 L 2.96875 -2.8125 L 2.34375 0.265625 C 2.3125 0.398438 2.226562 0.457031 2.09375 0.4375 L 0.8125 0.171875 C 0.675781 0.140625 0.625 0.0546875 0.65625 -0.078125 L 2.359375 -8.328125 C 2.390625 -8.460938 2.472656 -8.515625 2.609375 -8.484375 L 7.171875 -7.546875 C 7.296875 -7.515625 7.34375 -7.429688 7.3125 -7.296875 Z M 7.3125 -7.296875 "/></g></g><g style="fill:#0cc0df;fill-opacity:1;"><g transform="translate(61.034853, 134.135637)"><path style="stroke:none" d="M 6.5625 -7.984375 L 6.421875 -6.71875 C 6.410156 -6.570312 6.335938 -6.507812 6.203125 -6.53125 L 3.09375 -6.859375 L 2.875 -4.9375 L 5.234375 -4.6875 C 5.367188 -4.675781 5.429688 -4.597656 5.421875 -4.453125 L 5.28125 -3.21875 C 5.269531 -3.070312 5.195312 -3.003906 5.0625 -3.015625 L 2.703125 -3.265625 L 2.5 -1.40625 L 5.609375 -1.078125 C 5.742188 -1.054688 5.804688 -0.976562 5.796875 -0.84375 L 5.65625 0.40625 C 5.644531 0.539062 5.570312 0.597656 5.4375 0.578125 L 0.828125 0.09375 C 0.691406 0.0703125 0.628906 -0.00390625 0.640625 -0.140625 L 1.546875 -8.53125 C 1.554688 -8.664062 1.628906 -8.722656 1.765625 -8.703125 L 6.375 -8.21875 C 6.507812 -8.195312 6.570312 -8.117188 6.5625 -7.984375 Z M 6.5625 -7.984375 "/></g></g><g style="fill:#0cc0df;fill-opacity:1;"><g transform="translate(67.78285, 134.833052)"><path style="stroke:none" d="M 5.75 -8.59375 L 5.734375 -7.328125 C 5.734375 -7.179688 5.664062 -7.109375 5.53125 -7.109375 L 2.40625 -7.140625 L 2.390625 -5.203125 L 4.765625 -5.171875 C 4.898438 -5.171875 4.96875 -5.097656 4.96875 -4.953125 L 4.953125 -3.703125 C 4.953125 -3.554688 4.882812 -3.484375 4.75 -3.484375 L 2.375 -3.515625 L 2.359375 -1.65625 L 5.484375 -1.625 C 5.617188 -1.625 5.6875 -1.554688 5.6875 -1.421875 L 5.671875 -0.15625 C 5.671875 -0.0195312 5.601562 0.046875 5.46875 0.046875 L 0.828125 0 C 0.691406 0 0.625 -0.0664062 0.625 -0.203125 L 0.703125 -8.640625 C 0.703125 -8.773438 0.769531 -8.84375 0.90625 -8.84375 L 5.546875 -8.796875 C 5.679688 -8.796875 5.75 -8.726562 5.75 -8.59375 Z M 5.75 -8.59375 "/></g></g><g style="fill:#0cc0df;fill-opacity:1;"><g transform="translate(74.442813, 134.820404)"><path style="stroke:none" d=""/></g></g><g style="fill:#0cc0df;fill-opacity:1;"><g transform="translate(77.992021, 134.653656)"><path style="stroke:none" d="M 0.984375 -10.34375 L 3.25 -10.671875 C 3.414062 -10.691406 3.507812 -10.617188 3.53125 -10.453125 L 3.703125 -9.3125 C 3.722656 -9.144531 3.648438 -9.050781 3.484375 -9.03125 L 1.5625 -8.75 C 1.226562 -8.695312 1.085938 -8.503906 1.140625 -8.171875 L 1.34375 -6.765625 C 1.394531 -6.441406 1.585938 -6.304688 1.921875 -6.359375 L 3.078125 -6.53125 L 3 -7.03125 C 2.976562 -7.195312 3.050781 -7.289062 3.21875 -7.3125 L 4.40625 -7.484375 C 4.570312 -7.503906 4.664062 -7.429688 4.6875 -7.265625 L 4.765625 -6.765625 L 5.296875 -6.84375 C 5.472656 -6.875 5.570312 -6.800781 5.59375 -6.625 L 5.765625 -5.484375 C 5.785156 -5.316406 5.707031 -5.21875 5.53125 -5.1875 L 5 -5.109375 L 5.59375 -1.0625 C 5.613281 -0.894531 5.539062 -0.800781 5.375 -0.78125 L 2.4375 -0.359375 C 1.851562 -0.273438 1.378906 -0.363281 1.015625 -0.625 C 0.660156 -0.882812 0.441406 -1.304688 0.359375 -1.890625 L 0.015625 -4.3125 C -0.0234375 -4.550781 0.015625 -4.757812 0.140625 -4.9375 C 0.265625 -5.125 0.441406 -5.25 0.671875 -5.3125 L 0.65625 -5.34375 C 0.425781 -5.351562 0.222656 -5.425781 0.046875 -5.5625 C -0.117188 -5.695312 -0.21875 -5.878906 -0.25 -6.109375 L -0.5625 -8.28125 C -0.644531 -8.875 -0.550781 -9.34375 -0.28125 -9.6875 C -0.0195312 -10.039062 0.398438 -10.257812 0.984375 -10.34375 Z M 3.3125 -4.875 L 2.15625 -4.703125 C 1.820312 -4.648438 1.679688 -4.457031 1.734375 -4.125 L 1.96875 -2.484375 C 2.019531 -2.148438 2.210938 -2.007812 2.546875 -2.0625 L 3.703125 -2.234375 Z M 3.3125 -4.875 "/></g></g><g style="fill:#0cc0df;fill-opacity:1;"><g transform="translate(85.398481, 133.482933)"><path style="stroke:none" d=""/></g></g><g style="fill:#0cc0df;fill-opacity:1;"><g transform="translate(88.819444, 132.738974)"><path style="stroke:none" d="M 2.453125 -9.984375 L -2.015625 -8.640625 C -2.140625 -8.597656 -2.179688 -8.507812 -2.140625 -8.375 L -1.78125 -7.171875 C -1.738281 -7.035156 -1.65625 -6.988281 -1.53125 -7.03125 L -0.125 -7.453125 L 1.890625 -0.78125 C 1.929688 -0.65625 2.019531 -0.613281 2.15625 -0.65625 L 3.40625 -1.03125 C 3.539062 -1.070312 3.585938 -1.15625 3.546875 -1.28125 L 1.53125 -7.953125 L 2.9375 -8.375 C 3.050781 -8.40625 3.085938 -8.488281 3.046875 -8.625 L 2.6875 -9.828125 C 2.644531 -9.960938 2.566406 -10.015625 2.453125 -9.984375 Z M 2.453125 -9.984375 "/></g></g><g style="fill:#0cc0df;fill-opacity:1;"><g transform="translate(94.821215, 130.914726)"><path style="stroke:none" d="M 1.984375 -10.140625 L 2.46875 -8.96875 C 2.519531 -8.832031 2.484375 -8.738281 2.359375 -8.6875 L -0.53125 -7.515625 L 0.203125 -5.71875 L 2.40625 -6.609375 C 2.53125 -6.660156 2.617188 -6.617188 2.671875 -6.484375 L 3.140625 -5.328125 C 3.203125 -5.191406 3.171875 -5.097656 3.046875 -5.046875 L 0.84375 -4.15625 L 1.546875 -2.4375 L 4.4375 -3.609375 C 4.5625 -3.660156 4.644531 -3.625 4.6875 -3.5 L 5.171875 -2.328125 C 5.222656 -2.203125 5.1875 -2.113281 5.0625 -2.0625 L 0.765625 -0.3125 C 0.640625 -0.257812 0.550781 -0.296875 0.5 -0.421875 L -2.6875 -8.234375 C -2.738281 -8.359375 -2.703125 -8.445312 -2.578125 -8.5 L 1.71875 -10.25 C 1.84375 -10.300781 1.929688 -10.265625 1.984375 -10.140625 Z M 1.984375 -10.140625 "/></g></g><g style="fill:#0cc0df;fill-opacity:1;"><g transform="translate(101.133179, 128.335452)"><path style="stroke:none" d="M 5.8125 -3.109375 L 4.71875 -2.53125 C 4.632812 -2.476562 4.550781 -2.5 4.46875 -2.59375 L 3.375 -3.8125 L 1.28125 -2.6875 L 1.6875 -1.09375 C 1.707031 -0.976562 1.671875 -0.894531 1.578125 -0.84375 L 0.5 -0.265625 C 0.363281 -0.191406 0.273438 -0.226562 0.234375 -0.375 L -1.90625 -8.796875 C -1.925781 -8.921875 -1.890625 -9.015625 -1.796875 -9.078125 L -0.25 -9.90625 C -0.132812 -9.957031 -0.0390625 -9.929688 0.03125 -9.828125 L 5.859375 -3.375 C 5.960938 -3.269531 5.945312 -3.179688 5.8125 -3.109375 Z M 2.328125 -4.90625 L 0 -7.5625 L 0.921875 -4.15625 Z M 2.328125 -4.90625 "/></g></g><g style="fill:#0cc0df;fill-opacity:1;"><g transform="translate(10.995896, 78.168257)"><path style="stroke:none" d="M 2.953125 -5.171875 L 2.953125 -4.515625 C 2.953125 -4.429688 2.921875 -4.390625 2.859375 -4.390625 L 1.203125 -4.390625 L 1.203125 -3.078125 L 2.46875 -3.078125 C 2.539062 -3.078125 2.578125 -3.039062 2.578125 -2.96875 L 2.578125 -2.3125 C 2.578125 -2.238281 2.539062 -2.203125 2.46875 -2.203125 L 1.203125 -2.203125 L 1.203125 -0.875 L 2.859375 -0.875 C 2.921875 -0.875 2.953125 -0.835938 2.953125 -0.765625 L 2.953125 -0.109375 C 2.953125 -0.0351562 2.921875 0 2.859375 0 L 0.421875 0 C 0.359375 0 0.328125 -0.0351562 0.328125 -0.109375 L 0.328125 -5.171875 C 0.328125 -5.242188 0.359375 -5.28125 0.421875 -5.28125 L 2.859375 -5.28125 C 2.921875 -5.28125 2.953125 -5.242188 2.953125 -5.171875 Z M 2.953125 -5.171875 "/></g></g><g style="fill:#0cc0df;fill-opacity:1;"><g transform="translate(14.284209, 78.168257)"><path style="stroke:none" d="M 1.28125 -4.609375 L 2.015625 -4.609375 C 2.328125 -4.609375 2.5625 -4.53125 2.71875 -4.375 C 2.882812 -4.21875 2.96875 -3.984375 2.96875 -3.671875 L 2.96875 -3.234375 C 2.96875 -3.160156 2.929688 -3.125 2.859375 -3.125 L 2.203125 -3.125 C 2.128906 -3.125 2.09375 -3.160156 2.09375 -3.234375 L 2.09375 -3.515625 C 2.09375 -3.679688 2.003906 -3.765625 1.828125 -3.765625 L 1.46875 -3.765625 C 1.289062 -3.765625 1.203125 -3.679688 1.203125 -3.515625 L 1.203125 -2.953125 L 2.796875 -2.4375 C 2.910156 -2.394531 2.96875 -2.3125 2.96875 -2.1875 L 2.96875 -0.953125 C 2.96875 -0.640625 2.882812 -0.398438 2.71875 -0.234375 C 2.5625 -0.078125 2.328125 0 2.015625 0 L 1.28125 0 C 0.96875 0 0.726562 -0.078125 0.5625 -0.234375 C 0.40625 -0.398438 0.328125 -0.640625 0.328125 -0.953125 L 0.328125 -1.375 C 0.328125 -1.445312 0.363281 -1.484375 0.4375 -1.484375 L 1.09375 -1.484375 C 1.164062 -1.484375 1.203125 -1.445312 1.203125 -1.375 L 1.203125 -1.09375 C 1.203125 -0.925781 1.289062 -0.84375 1.46875 -0.84375 L 1.828125 -0.84375 C 2.003906 -0.84375 2.09375 -0.925781 2.09375 -1.09375 L 2.09375 -1.765625 L 0.5 -2.28125 C 0.382812 -2.320312 0.328125 -2.40625 0.328125 -2.53125 L 0.328125 -3.671875 C 0.328125 -3.984375 0.40625 -4.21875 0.5625 -4.375 C 0.726562 -4.53125 0.96875 -4.609375 1.28125 -4.609375 Z M 1.28125 -4.609375 "/></g></g><g style="fill:#0cc0df;fill-opacity:1;"><g transform="translate(17.579111, 78.168257)"><path style="stroke:none" d="M 2.734375 -4.609375 L 0.296875 -4.609375 C 0.234375 -4.609375 0.203125 -4.578125 0.203125 -4.515625 L 0.203125 -3.84375 C 0.203125 -3.78125 0.234375 -3.75 0.296875 -3.75 L 1.0625 -3.75 L 1.0625 -0.109375 C 1.0625 -0.0351562 1.097656 0 1.171875 0 L 1.859375 0 C 1.929688 0 1.96875 -0.0351562 1.96875 -0.109375 L 1.96875 -3.75 L 2.734375 -3.75 C 2.796875 -3.75 2.828125 -3.78125 2.828125 -3.84375 L 2.828125 -4.515625 C 2.828125 -4.578125 2.796875 -4.609375 2.734375 -4.609375 Z M 2.734375 -4.609375 "/></g></g><g style="fill:#0cc0df;fill-opacity:1;"><g transform="translate(20.610424, 78.168257)"><path style="stroke:none" d="M 0.328125 -0.125 L 0.328125 -0.734375 C 0.328125 -0.828125 0.375 -0.875 0.46875 -0.875 L 1.0625 -0.875 C 1.144531 -0.875 1.1875 -0.828125 1.1875 -0.734375 L 1.1875 -0.125 C 1.1875 -0.0390625 1.144531 0 1.0625 0 L 0.46875 0 C 0.375 0 0.328125 -0.0390625 0.328125 -0.125 Z M 0.328125 -0.125 "/></g></g><g style="fill:#0cc0df;fill-opacity:1;"><g transform="translate(120.889828, 74.221162)"><path style="stroke:none" d="M 2.796875 -2.53125 L 1.3125 -1.734375 C 1.25 -1.703125 1.21875 -1.648438 1.21875 -1.578125 L 1.21875 -1 C 1.21875 -0.914062 1.265625 -0.875 1.359375 -0.875 L 2.078125 -0.875 L 2.078125 -1.140625 C 2.078125 -1.222656 2.117188 -1.265625 2.203125 -1.265625 L 2.828125 -1.265625 C 2.921875 -1.265625 2.96875 -1.222656 2.96875 -1.140625 L 2.96875 -0.125 C 2.96875 -0.0390625 2.921875 0 2.828125 0 L 0.46875 0 C 0.375 0 0.328125 -0.0390625 0.328125 -0.125 L 0.328125 -2.078125 C 0.328125 -2.140625 0.335938 -2.1875 0.359375 -2.21875 C 0.390625 -2.257812 0.4375 -2.296875 0.5 -2.328125 L 2.078125 -3.171875 L 2.078125 -4.140625 C 2.078125 -4.316406 1.988281 -4.40625 1.8125 -4.40625 L 1.484375 -4.40625 C 1.304688 -4.40625 1.21875 -4.316406 1.21875 -4.140625 L 1.21875 -3.625 C 1.21875 -3.550781 1.1875 -3.515625 1.125 -3.515625 L 0.4375 -3.515625 C 0.363281 -3.515625 0.328125 -3.550781 0.328125 -3.625 L 0.328125 -4.328125 C 0.328125 -4.640625 0.40625 -4.875 0.5625 -5.03125 C 0.726562 -5.195312 0.96875 -5.28125 1.28125 -5.28125 L 2.015625 -5.28125 C 2.328125 -5.28125 2.5625 -5.195312 2.71875 -5.03125 C 2.882812 -4.875 2.96875 -4.640625 2.96875 -4.328125 L 2.96875 -2.765625 C 2.96875 -2.703125 2.953125 -2.65625 2.921875 -2.625 C 2.890625 -2.59375 2.847656 -2.5625 2.796875 -2.53125 Z M 2.796875 -2.53125 "/></g></g><g style="fill:#0cc0df;fill-opacity:1;"><g transform="translate(124.18473, 74.221162)"><path style="stroke:none" d="M 0.328125 -0.953125 L 0.328125 -4.328125 C 0.328125 -4.640625 0.40625 -4.875 0.5625 -5.03125 C 0.726562 -5.195312 0.96875 -5.28125 1.28125 -5.28125 L 2.015625 -5.28125 C 2.328125 -5.28125 2.5625 -5.195312 2.71875 -5.03125 C 2.882812 -4.875 2.96875 -4.640625 2.96875 -4.328125 L 2.96875 -0.953125 C 2.96875 -0.640625 2.882812 -0.398438 2.71875 -0.234375 C 2.5625 -0.078125 2.328125 0 2.015625 0 L 1.28125 0 C 0.96875 0 0.726562 -0.078125 0.5625 -0.234375 C 0.40625 -0.398438 0.328125 -0.640625 0.328125 -0.953125 Z M 1.46875 -0.84375 L 1.859375 -0.84375 C 2.023438 -0.84375 2.109375 -0.929688 2.109375 -1.109375 L 2.109375 -4.15625 C 2.109375 -4.332031 2.023438 -4.421875 1.859375 -4.421875 L 1.46875 -4.421875 C 1.289062 -4.421875 1.203125 -4.332031 1.203125 -4.15625 L 1.203125 -1.109375 C 1.203125 -0.929688 1.289062 -0.84375 1.46875 -0.84375 Z M 1.46875 -0.84375 "/></g></g><g style="fill:#0cc0df;fill-opacity:1;"><g transform="translate(127.479632, 74.221162)"><path style="stroke:none" d="M 2.796875 -2.53125 L 1.3125 -1.734375 C 1.25 -1.703125 1.21875 -1.648438 1.21875 -1.578125 L 1.21875 -1 C 1.21875 -0.914062 1.265625 -0.875 1.359375 -0.875 L 2.078125 -0.875 L 2.078125 -1.140625 C 2.078125 -1.222656 2.117188 -1.265625 2.203125 -1.265625 L 2.828125 -1.265625 C 2.921875 -1.265625 2.96875 -1.222656 2.96875 -1.140625 L 2.96875 -0.125 C 2.96875 -0.0390625 2.921875 0 2.828125 0 L 0.46875 0 C 0.375 0 0.328125 -0.0390625 0.328125 -0.125 L 0.328125 -2.078125 C 0.328125 -2.140625 0.335938 -2.1875 0.359375 -2.21875 C 0.390625 -2.257812 0.4375 -2.296875 0.5 -2.328125 L 2.078125 -3.171875 L 2.078125 -4.140625 C 2.078125 -4.316406 1.988281 -4.40625 1.8125 -4.40625 L 1.484375 -4.40625 C 1.304688 -4.40625 1.21875 -4.316406 1.21875 -4.140625 L 1.21875 -3.625 C 1.21875 -3.550781 1.1875 -3.515625 1.125 -3.515625 L 0.4375 -3.515625 C 0.363281 -3.515625 0.328125 -3.550781 0.328125 -3.625 L 0.328125 -4.328125 C 0.328125 -4.640625 0.40625 -4.875 0.5625 -5.03125 C 0.726562 -5.195312 0.96875 -5.28125 1.28125 -5.28125 L 2.015625 -5.28125 C 2.328125 -5.28125 2.5625 -5.195312 2.71875 -5.03125 C 2.882812 -4.875 2.96875 -4.640625 2.96875 -4.328125 L 2.96875 -2.765625 C 2.96875 -2.703125 2.953125 -2.65625 2.921875 -2.625 C 2.890625 -2.59375 2.847656 -2.5625 2.796875 -2.53125 Z M 2.796875 -2.53125 "/></g></g><g style="fill:#0cc0df;fill-opacity:1;"><g transform="translate(130.774535, 74.221162)"><path style="stroke:none" d="M 0.53125 -5.28125 L 2.765625 -5.28125 C 2.859375 -5.28125 2.90625 -5.234375 2.90625 -5.140625 L 2.90625 -4.53125 C 2.90625 -4.445312 2.859375 -4.40625 2.765625 -4.40625 L 1.28125 -4.40625 L 1.28125 -3.375 L 2.859375 -2.875 C 2.929688 -2.84375 2.96875 -2.796875 2.96875 -2.734375 L 2.96875 -0.921875 C 2.96875 -0.617188 2.890625 -0.390625 2.734375 -0.234375 C 2.578125 -0.078125 2.347656 0 2.046875 0 L 1.25 0 C 0.945312 0 0.71875 -0.078125 0.5625 -0.234375 C 0.40625 -0.390625 0.328125 -0.617188 0.328125 -0.921875 L 0.328125 -1.140625 C 0.328125 -1.222656 0.375 -1.265625 0.46875 -1.265625 L 1.09375 -1.265625 C 1.175781 -1.265625 1.21875 -1.222656 1.21875 -1.140625 L 1.21875 -0.875 L 1.9375 -0.875 C 2.03125 -0.875 2.078125 -0.914062 2.078125 -1 L 2.078125 -2.203125 L 0.5 -2.703125 C 0.425781 -2.734375 0.390625 -2.78125 0.390625 -2.84375 L 0.390625 -5.140625 C 0.390625 -5.234375 0.4375 -5.28125 0.53125 -5.28125 Z M 0.53125 -5.28125 "/></g></g><g style="fill:#2b1511;fill-opacity:1;"><g transform="translate(144.049975, 100.227417)"><path style="stroke:none" d="M 31.65625 0 L 24.640625 0 C 23.890625 0 23.378906 -0.332031 23.109375 -1 L 14.765625 -20.671875 L 12.3125 -15.96875 L 12.3125 -1.328125 C 12.3125 -0.441406 11.875 0 11 0 L 4.640625 0 C 3.753906 0 3.3125 -0.441406 3.3125 -1.328125 L 3.3125 -51.65625 C 3.3125 -52.539062 3.753906 -52.984375 4.640625 -52.984375 L 11 -52.984375 C 11.875 -52.984375 12.3125 -52.539062 12.3125 -51.65625 L 12.3125 -31.125 L 22.515625 -52 C 22.867188 -52.65625 23.378906 -52.984375 24.046875 -52.984375 L 31 -52.984375 C 31.476562 -52.984375 31.804688 -52.835938 31.984375 -52.546875 C 32.160156 -52.265625 32.140625 -51.878906 31.921875 -51.390625 L 20.671875 -28.28125 L 32.65625 -1.515625 C 32.875 -1.078125 32.894531 -0.710938 32.71875 -0.421875 C 32.539062 -0.140625 32.1875 0 31.65625 0 Z M 31.65625 0 "/></g></g><g style="fill:#2b1511;fill-opacity:1;"><g transform="translate(179.551447, 100.227417)"><path style="stroke:none" d="M 12.84375 -52.984375 L 20.265625 -52.984375 C 23.398438 -52.984375 25.773438 -52.175781 27.390625 -50.5625 C 29.003906 -48.957031 29.8125 -46.585938 29.8125 -43.453125 L 29.8125 -36.421875 C 29.8125 -35.722656 29.457031 -35.375 28.75 -35.375 L 21.859375 -35.375 C 21.148438 -35.375 20.796875 -35.722656 20.796875 -36.421875 L 20.796875 -41.59375 C 20.796875 -43.363281 19.910156 -44.25 18.140625 -44.25 L 14.96875 -44.25 C 13.195312 -44.25 12.3125 -43.363281 12.3125 -41.59375 L 12.3125 -32.453125 L 28.078125 -27.28125 C 29.234375 -26.800781 29.8125 -25.988281 29.8125 -24.84375 L 29.8125 -9.53125 C 29.8125 -6.445312 29.003906 -4.085938 27.390625 -2.453125 C 25.773438 -0.816406 23.398438 0 20.265625 0 L 12.84375 0 C 9.757812 0 7.398438 -0.816406 5.765625 -2.453125 C 4.128906 -4.085938 3.3125 -6.445312 3.3125 -9.53125 L 3.3125 -16.5 C 3.3125 -17.195312 3.664062 -17.546875 4.375 -17.546875 L 11.265625 -17.546875 C 11.960938 -17.546875 12.3125 -17.195312 12.3125 -16.5 L 12.3125 -11.390625 C 12.3125 -9.628906 13.195312 -8.75 14.96875 -8.75 L 18.140625 -8.75 C 19.910156 -8.75 20.796875 -9.628906 20.796875 -11.390625 L 20.796875 -20.203125 L 5.09375 -25.375 C 3.90625 -25.769531 3.3125 -26.582031 3.3125 -27.8125 L 3.3125 -43.453125 C 3.3125 -46.585938 4.128906 -48.957031 5.765625 -50.5625 C 7.398438 -52.175781 9.757812 -52.984375 12.84375 -52.984375 Z M 12.84375 -52.984375 "/></g></g><g style="fill:#2b1511;fill-opacity:1;"><g transform="translate(212.668484, 100.227417)"><path style="stroke:none" d=""/></g></g><g style="fill:#2b1511;fill-opacity:1;"><g transform="translate(229.227008, 100.227417)"><path style="stroke:none" d="M 29.875 -43.453125 L 29.875 -36.296875 C 29.875 -35.585938 29.519531 -35.234375 28.8125 -35.234375 L 22.1875 -35.234375 C 21.476562 -35.234375 21.125 -35.585938 21.125 -36.296875 L 21.125 -41.59375 C 21.125 -43.363281 20.242188 -44.25 18.484375 -44.25 L 15.03125 -44.25 C 13.269531 -44.25 12.390625 -43.363281 12.390625 -41.59375 L 12.390625 -11.390625 C 12.390625 -9.628906 13.269531 -8.75 15.03125 -8.75 L 18.484375 -8.75 C 20.242188 -8.75 21.125 -9.628906 21.125 -11.390625 L 21.125 -16.6875 C 21.125 -17.394531 21.476562 -17.75 22.1875 -17.75 L 28.8125 -17.75 C 29.519531 -17.75 29.875 -17.394531 29.875 -16.6875 L 29.875 -9.53125 C 29.875 -6.445312 29.054688 -4.085938 27.421875 -2.453125 C 25.785156 -0.816406 23.421875 0 20.328125 0 L 12.921875 0 C 9.828125 0 7.453125 -0.816406 5.796875 -2.453125 C 4.140625 -4.085938 3.3125 -6.445312 3.3125 -9.53125 L 3.3125 -43.453125 C 3.3125 -46.585938 4.140625 -48.957031 5.796875 -50.5625 C 7.453125 -52.175781 9.828125 -52.984375 12.921875 -52.984375 L 20.328125 -52.984375 C 23.421875 -52.984375 25.785156 -52.175781 27.421875 -50.5625 C 29.054688 -48.957031 29.875 -46.585938 29.875 -43.453125 Z M 29.875 -43.453125 "/></g></g><g style="fill:#2b1511;fill-opacity:1;"><g transform="translate(261.747921, 100.227417)"><path style="stroke:none" d="M 35.234375 0 L 28.21875 0 C 27.644531 0 27.289062 -0.304688 27.15625 -0.921875 L 25.296875 -10.59375 L 13.515625 -10.59375 L 11.71875 -0.921875 C 11.59375 -0.304688 11.238281 0 10.65625 0 L 3.578125 0 C 2.785156 0 2.5 -0.375 2.71875 -1.125 L 13.703125 -52.0625 C 13.835938 -52.675781 14.21875 -52.984375 14.84375 -52.984375 L 24.046875 -52.984375 C 24.660156 -52.984375 25.035156 -52.675781 25.171875 -52.0625 L 36.15625 -1.125 C 36.289062 -0.375 35.984375 0 35.234375 0 Z M 23.640625 -18.28125 L 19.40625 -41.390625 L 15.171875 -18.28125 Z M 23.640625 -18.28125 "/></g></g><g style="fill:#2b1511;fill-opacity:1;"><g transform="translate(300.561097, 100.227417)"><path style="stroke:none" d="M 29.8125 -51.921875 L 29.8125 -45.296875 C 29.8125 -44.597656 29.457031 -44.25 28.75 -44.25 L 12.3125 -44.25 L 12.3125 -30.9375 L 24.765625 -30.9375 C 25.472656 -30.9375 25.828125 -30.582031 25.828125 -29.875 L 25.828125 -23.25 C 25.828125 -22.539062 25.472656 -22.1875 24.765625 -22.1875 L 12.3125 -22.1875 L 12.3125 -1.0625 C 12.3125 -0.351562 11.960938 0 11.265625 0 L 4.375 0 C 3.664062 0 3.3125 -0.351562 3.3125 -1.0625 L 3.3125 -51.921875 C 3.3125 -52.628906 3.664062 -52.984375 4.375 -52.984375 L 28.75 -52.984375 C 29.457031 -52.984375 29.8125 -52.628906 29.8125 -51.921875 Z M 29.8125 -51.921875 "/></g></g><g style="fill:#2b1511;fill-opacity:1;"><g transform="translate(333.678134, 100.227417)"><path style="stroke:none" d="M 29.734375 -51.921875 L 29.734375 -45.296875 C 29.734375 -44.546875 29.378906 -44.171875 28.671875 -44.171875 L 12.125 -44.171875 L 12.125 -30.9375 L 24.765625 -30.9375 C 25.472656 -30.9375 25.828125 -30.5625 25.828125 -29.8125 L 25.828125 -23.25 C 25.828125 -22.5 25.472656 -22.125 24.765625 -22.125 L 12.125 -22.125 L 12.125 -8.75 L 28.671875 -8.75 C 29.378906 -8.75 29.734375 -8.394531 29.734375 -7.6875 L 29.734375 -1.0625 C 29.734375 -0.351562 29.378906 0 28.671875 0 L 4.3125 0 C 3.644531 0 3.3125 -0.351562 3.3125 -1.0625 L 3.3125 -51.921875 C 3.3125 -52.628906 3.644531 -52.984375 4.3125 -52.984375 L 28.671875 -52.984375 C 29.378906 -52.984375 29.734375 -52.628906 29.734375 -51.921875 Z M 29.734375 -51.921875 "/></g></g></g></svg>